<svg width="854" height="64" viewBox="0 0 854 64" fill="none" xmlns="http://www.w3.org/2000/svg">
<g opacity="0.3">
<path d="M1 32.7207C1 32.7207 93.3 -38.8069 196 32.7207" stroke="white" stroke-width="1.5" stroke-dasharray="5 5"/>
<path d="M181.219 39.4988C181.219 39.4988 200.334 45.0252 202.156 38.7642C203.978 32.5031 202.611 26.0287 196.694 17.1587" stroke="white" stroke-width="1.5" stroke-dasharray="4 4"/>
<path d="M651 32.7207C651 32.7207 743.3 -38.8069 846 32.7207" stroke="white" stroke-width="1.5" stroke-dasharray="5 5"/>
<path d="M831.219 39.4988C831.219 39.4988 850.334 45.0252 852.156 38.7642C853.978 32.5031 852.611 26.0287 846.694 17.1587" stroke="white" stroke-width="1.5" stroke-dasharray="4 4"/>
<path d="M331.481 31.2583C331.481 31.2583 423.781 102.786 526.481 31.2583" stroke="white" stroke-width="1.5" stroke-dasharray="5 5"/>
<path d="M511.7 24.4758C511.7 24.4758 530.816 18.9495 532.638 25.2104C534.46 31.4713 533.093 37.9456 527.176 46.8154" stroke="white" stroke-width="1.5" stroke-dasharray="4 4"/>
</g>
</svg>
